<svg width="48" height="50" viewBox="0 0 48 50" fill="none" xmlns="http://www.w3.org/2000/svg">
<g clip-path="url(#clip0_1_31)">
<path d="M46.377 0H11.0047C10.5706 0 10.2186 0.373124 10.2186 0.833332V13.3333H11.7907V1.66666H45.5909V47.4999C45.5985 47.9381 45.2795 48.3052 44.867 48.3332C44.7994 48.3332 44.7318 48.3274 44.6642 48.3257C44.525 48.3216 44.3859 48.3182 44.2491 48.3032C44.2373 48.3032 44.2263 48.3032 44.2145 48.2982C41.6473 48.0007 39.6194 45.8529 39.3363 43.1316C39.3363 43.1199 39.3324 43.1074 39.3308 43.0957C39.3117 42.8977 39.3023 42.6989 39.3025 42.4999V40.8333C39.3025 40.373 38.9506 39.9999 38.5165 39.9999H11.7907V24.9999H10.2186V39.9999H3.93025C3.49615 39.9999 3.1442 40.373 3.1442 40.8333V42.4999C3.14852 46.6401 6.31335 49.9953 10.2186 49.9999H44.8835C46.159 49.9645 47.1728 48.8526 47.163 47.4999V0.833332C47.163 0.373124 46.8111 0 46.377 0ZM10.2186 48.3332C7.18125 48.3296 4.71974 45.72 4.7163 42.4999V41.6666H37.7304V42.4999C37.7315 42.7747 37.7464 43.0493 37.7752 43.3224C37.7823 43.3949 37.7957 43.4649 37.8051 43.5366C37.831 43.7382 37.8625 43.9391 37.9041 44.1366C37.9183 44.2057 37.9364 44.2741 37.9529 44.3432C38.0008 44.5441 38.055 44.7416 38.1179 44.9366C38.136 44.9924 38.1549 45.0474 38.1745 45.1032C38.2461 45.3099 38.327 45.5116 38.4158 45.7107C38.4347 45.7516 38.452 45.7941 38.4709 45.8316C38.5694 46.0427 38.6776 46.2479 38.7955 46.4474C38.8112 46.4741 38.8254 46.5016 38.8411 46.5307C38.9692 46.7436 39.1076 46.9494 39.2553 47.1474L39.2805 47.1832C39.4521 47.4117 39.6358 47.6295 39.8307 47.8357C40 48.0135 40.1755 48.1802 40.3574 48.3357L10.2186 48.3332Z" fill="white"/>
<path d="M25.9397 23.3333C26.1482 23.3333 26.348 23.2454 26.4954 23.0892L29.6396 19.7558C29.9465 19.4304 29.9465 18.9029 29.6396 18.5775L26.4954 15.2442C26.348 15.0879 26.1482 15 25.9397 15H3.93025C1.75967 15 0 16.8655 0 19.1667C0 21.4678 1.75967 23.3333 3.93025 23.3333H25.9397ZM25.7369 16.7967L27.9724 19.1667L25.7369 21.5367L25.178 19.1667L25.7369 16.7967ZM6.2884 16.6667H24.1475L23.7544 18.3333H7.8605V20H23.7544L24.1475 21.6667H6.2884V16.6667ZM1.5721 19.1667C1.5721 17.7859 2.62786 16.6667 3.93025 16.6667H4.7163V21.6667H3.93025C2.62786 21.6667 1.5721 20.5474 1.5721 19.1667Z" fill="white"/>
<path d="M18.0792 35.8333H41.6607C42.0948 35.8333 42.4468 35.4601 42.4468 34.9999V9.99999C42.4467 9.53979 42.0947 9.16677 41.6605 9.16687C41.4521 9.16687 41.2524 9.25468 41.105 9.41083L17.5235 34.4108C17.2165 34.7363 17.2166 35.2639 17.5237 35.5893C17.671 35.7455 17.8708 35.8333 18.0792 35.8333ZM40.8747 12.0117V14.1667H39.3026V15.8333H40.8747V17.5H39.3026V19.1666H40.8747V20.8333H39.3026V22.5H40.8747V24.1666H39.3026V25.8333H40.8747V27.5H39.3026V29.1666H40.8747V30.8333H39.3026V32.4999H40.8747V34.1666H39.3026V32.4999H37.7305V34.1666H36.1584V32.4999H34.5863V34.1666H33.0142V32.4999H31.4421V34.1666H29.87V32.4999H28.2979V34.1666H26.7258V32.4999H25.1536V34.1666H23.5815V32.4999H22.0094V34.1666H19.9767L40.8747 12.0117Z" fill="white"/>
<path d="M29.4651 30.8333H36.9444C37.3785 30.8333 37.7304 30.4602 37.7304 29.9999V22.0708C37.7303 21.6106 37.3784 21.2376 36.9442 21.2377C36.7358 21.2377 36.536 21.3255 36.3886 21.4816L28.9094 29.4108C28.6024 29.7363 28.6025 30.2639 28.9096 30.5893C29.0569 30.7455 29.2567 30.8333 29.4651 30.8333ZM36.1583 24.0833V29.1666H31.3634L36.1583 24.0833Z" fill="white"/>
<path d="M36.1583 5H20.4373V6.66666H36.1583V5Z" fill="white"/>
<path d="M38.5165 8.33337H18.0792V10H38.5165V8.33337Z" fill="white"/>
<path d="M18.0792 25.8333H13.3629V27.4999H18.0792V25.8333Z" fill="white"/>
<path d="M16.5071 29.1666H13.3629V30.8333H16.5071V29.1666Z" fill="white"/>
</g>
<defs>
<clipPath id="clip0_1_31">
<rect width="47.1631" height="50" fill="white"/>
</clipPath>
</defs>
</svg>
